<svg id="Layer_1" data-name="Layer 1" xmlns="http://www.w3.org/2000/svg" viewBox="0 0 674.75 538.35"><defs><style>.cls-1{fill:#fcf7c9;}.cls-2{fill:#e0deb5;}.cls-3{fill:#e94d35;}.cls-4{fill:#0dabbc;}.cls-5{fill:#1d1d1b;}</style></defs><title>sax</title><path class="cls-1" d="M471,356.05V521.18c0,42.59-41.29,44.08-41.29,44.08-61.27,0-63.26-51.55-63.26-51.55V87.08a22.27,22.27,0,0,0-8-16.94c-14.44-9.46-28.89,5.48-28.89,5.48-18.93,20.92-37.36,23.46-37.36,23.46H237v10.41h53.79S314.67,110,325.63,95c0,0,9-13.44,21.92-8.46,0,0,5.48,2,5,14.44l0,258s-10.49,5-10.49,16.92V526.41s5,57.79,75.71,57.79c0,0,76.71,8,76.71-56.79V356.05s1-69.73,49.81-93.64L514.48,235.9C467,286.18,471,356.05,471,356.05Z" transform="translate(-72.47 -46.16)"/><path class="cls-2" d="M329.61,75.62s14.45-14.94,28.89-5.48a22.27,22.27,0,0,1,8,16.94V513.71s2,51.55,63.26,51.55c0,0,41.29-1.49,41.29-44.08V356.05S467,286.18,514.48,235.9l-32.94-29.28s-40.85,57.79-40.85,143.46v158.4s3,25.9-20.91,25.9c0,0-18.44,3-18.44-18.43V380.34s2.62-15.56-10.71-20.92V85.48S396.87,44.23,350,46.23c0,0-16.93,0-41.84,27.89,0,0-14.95,14.95-32.88,14.95H237v10h55.28S310.68,96.54,329.61,75.62Z" transform="translate(-72.47 -46.16)"/><path class="cls-3" d="M398.1,133.42c-.37,0-.74,0-1.11.05v24.24c.37,0,.74,0,1.11,0a12.17,12.17,0,1,0,0-24.33Z" transform="translate(-72.47 -46.16)"/><path class="cls-3" d="M398.1,168.15a10.32,10.32,0,0,0-1.11.06v24.23c.37,0,.74.06,1.11.06a12.18,12.18,0,0,0,0-24.35Z" transform="translate(-72.47 -46.16)"/><path class="cls-3" d="M398.1,202.88c-.37,0-.74,0-1.11.05v24.24c.37,0,.74.06,1.11.06a12.18,12.18,0,0,0,0-24.35Z" transform="translate(-72.47 -46.16)"/><path class="cls-3" d="M398.68,236.73c-.57,0-1.13,0-1.69.08v37c.56,0,1.12.09,1.69.09a18.58,18.58,0,0,0,0-37.15Z" transform="translate(-72.47 -46.16)"/><path class="cls-4" d="M259.39,99.08a15.94,15.94,0,0,1-15.93,16h-26.4a16,16,0,0,1-15.94-16h0a15.94,15.94,0,0,1,15.94-15.94h26.4a15.94,15.94,0,0,1,15.93,15.94Z" transform="translate(-72.47 -46.16)"/><path class="cls-4" d="M554.76,272.38a12,12,0,0,1-8-3l-71.77-64A12,12,0,1,1,491,187.51l71.77,64a12,12,0,0,1-8,20.88Z" transform="translate(-72.47 -46.16)"/><path class="cls-5" d="M619.59,66.89v93c-3.81-3.66-11.19-3.76-17.69.1-7.38,4.39-10.83,12.22-7.7,17.49s11.65,6,19,1.59c5.52-3.28,8.84-8.47,8.86-13.09h0V66.89Z" transform="translate(-72.47 -46.16)"/><path class="cls-5" d="M742.71,214.82C737,204.1,724,191.65,724,174.89h-2.51v93c-3.81-3.67-11.19-3.76-17.69.1-7.38,4.39-10.83,12.21-7.7,17.48s11.65,6,19,1.59c5.52-3.27,8.84-8.47,8.86-13.08h0V206.52s7.7,0,13.92,9.68c10.09,15.69,7.9,31.79,1.38,46.33C750.14,247.32,748.42,225.54,742.71,214.82Z" transform="translate(-72.47 -46.16)"/><path class="cls-5" d="M160.61,288.88v93c-3.81-3.67-11.19-3.76-17.68.1-7.39,4.39-10.84,12.22-7.71,17.49s11.65,6,19,1.59c5.51-3.28,8.83-8.48,8.86-13.09h0V288.88Z" transform="translate(-72.47 -46.16)"/><path class="cls-5" d="M123.5,139.63c5.39-11,1.17-21.47-3.21-28-9-13.37-18.77-14.51-18.77-31.28H99v93c-3.81-3.67-11.19-3.76-17.69.1-7.39,4.39-10.84,12.22-7.71,17.49s11.66,6,19,1.59c5.52-3.28,8.84-8.48,8.86-13.09h0V129.33s6.1.24,13.93,8.67c10.68,11.51,12.12,22.93,5.61,37.47C130.26,162.62,128.73,149.22,123.5,139.63Zm-3.21-4.89c-7.51-9.5-16.73-18.39-18.46-32.37,1.33.69,6.82,3.79,13.62,11.11s9.89,15.58,7.43,25.06A36.2,36.2,0,0,0,120.29,134.74Z" transform="translate(-72.47 -46.16)"/></svg>