<svg id="Layer_1" data-name="Layer 1" xmlns="http://www.w3.org/2000/svg" viewBox="0 0 1110.21 610.92"><defs><style>.cls-1{fill:#bfdcf4;}.cls-2{fill:#e0deb5;}.cls-3{fill:#ffffc7;}.cls-4{fill:#231f20;}</style></defs><title>tromp</title><path class="cls-1" d="M975.31,451.24V732.69a17,17,0,0,1-34,0V451.24Z" transform="translate(-82.25 -138.79)"/><path class="cls-1" d="M902.68,451.24V732.69a17,17,0,0,1-34,0V451.24Z" transform="translate(-82.25 -138.79)"/><path class="cls-1" d="M830.05,451.24V732.69a17,17,0,0,1-34,0V451.24Z" transform="translate(-82.25 -138.79)"/><path class="cls-2" d="M409,674.81a21.58,21.58,0,0,0,21.56,21.57h0a21.58,21.58,0,0,0,21.57-21.57V352.5a21.57,21.57,0,0,0-21.57-21.56h0A21.56,21.56,0,0,0,409,352.5Z" transform="translate(-82.25 -138.79)"/><path class="cls-3" d="M452.13,345.69V681.62S525.9,552.24,625.76,552.24l347.57-15.88h23.76a67.62,67.62,0,0,1,62.22,41.33H696.19a69.54,69.54,0,1,0,0,139.07h300.9c55.69,0,102-40.57,111.14-93.67h57v-45.4H1106.8A113.22,113.22,0,0,0,1023,494.05v-.82l-4.72-.22A112.81,112.81,0,0,0,997.09,491H973.33L625.76,475.08C525.9,475.08,452.13,345.69,452.13,345.69Zm609.64,277.4a67.62,67.62,0,0,1-64.68,48.27H696.19a24.14,24.14,0,1,1,0-48.27Z" transform="translate(-82.25 -138.79)"/><path class="cls-2" d="M1156.89,628.66a17.78,17.78,0,0,0,17.78,17.78h0a17.77,17.77,0,0,0,17.78-17.78V570.4a17.77,17.77,0,0,0-17.78-17.77h0a17.78,17.78,0,0,0-17.78,17.77Z" transform="translate(-82.25 -138.79)"/><path class="cls-1" d="M932.19,445.29a8.78,8.78,0,0,0,8.8,8.77h34.6a8.78,8.78,0,0,0,8.8-8.77h0a8.79,8.79,0,0,0-8.8-8.8H941a8.79,8.79,0,0,0-8.8,8.8Z" transform="translate(-82.25 -138.79)"/><path class="cls-1" d="M859.55,445.29a8.78,8.78,0,0,0,8.8,8.77H903a8.78,8.78,0,0,0,8.8-8.77h0a8.79,8.79,0,0,0-8.8-8.8H868.35a8.79,8.79,0,0,0-8.8,8.8Z" transform="translate(-82.25 -138.79)"/><path class="cls-1" d="M786.92,445.29a8.78,8.78,0,0,0,8.8,8.77h34.61a8.78,8.78,0,0,0,8.8-8.77h0a8.79,8.79,0,0,0-8.8-8.8H795.72a8.79,8.79,0,0,0-8.8,8.8Z" transform="translate(-82.25 -138.79)"/><path class="cls-4" d="M331.8,429.08c-9.11-17.12-30-37-30-63.8h-4V513.9c-6.09-5.85-17.87-6-28.26.17-11.8,7-17.31,19.52-12.31,27.93s18.62,9.56,30.42,2.54c8.81-5.23,14.12-13.53,14.15-20.91h0V415.82s12.3,0,22.25,15.47c16.11,25.07,12.62,50.8,2.21,74C343.68,481,340.91,446.21,331.8,429.08Z" transform="translate(-82.25 -138.79)"/><path class="cls-4" d="M152,138.79v168c-6.88-6.62-20.21-6.78-31.95.19-13.34,7.93-19.57,22.07-13.92,31.58s21.05,10.8,34.39,2.88c10-5.92,16-15.31,16-23.64h0v-179Z" transform="translate(-82.25 -138.79)"/><path class="cls-4" d="M129.46,498.1V663.53c-6.77-6.52-19.89-6.69-31.45.18-13.14,7.8-19.27,21.72-13.71,31.09s20.73,10.64,33.86,2.83c9.81-5.83,15.71-15.07,15.76-23.27h0V498.1Z" transform="translate(-82.25 -138.79)"/></svg>