<svg id="Layer_1" data-name="Layer 1" xmlns="http://www.w3.org/2000/svg" viewBox="0 0 768.93 821.89"><defs><style>.cls-1{fill:#423734;}.cls-2{fill:#00aabc;}.cls-3{fill:#fffefd;}.cls-4{fill:#2f2523;}.cls-5{fill:#ef4b33;}.cls-6{fill:#231f20;}</style></defs><title>uku</title><path class="cls-1" d="M794.9,725.11h0c-7.85-40.81,24.19-147.62,24.19-147.62s106.8-32,147.61-24.18h0a162,162,0,1,1-171.8,171.8Z" transform="translate(-349.65 -55.11)"/><polygon class="cls-2" points="467.93 563.64 510.7 520.87 153.22 172.56 119.61 206.16 467.93 563.64"/><rect class="cls-3" x="963.08" y="766.66" width="101.53" height="11.2" transform="translate(-598.77 887.98) rotate(-45)"/><path class="cls-4" d="M900.8,731a50.77,50.77,0,1,0,0-71.79A50.76,50.76,0,0,0,900.8,731Z" transform="translate(-349.65 -55.11)"/><rect class="cls-3" x="752.12" y="151.83" width="4.09" height="684.83" transform="translate(-478.24 622.92) rotate(-45)"/><polygon class="cls-3" points="636.03 691.86 638.91 688.99 154.66 204.73 151.78 207.61 636.03 691.86"/><rect class="cls-3" x="733.79" y="170.16" width="4.08" height="684.83" transform="translate(-496.55 615.5) rotate(-45.01)"/><path class="cls-5" d="M510.29,237.06s-2.5-45-46.27-53.78c0,0-35-10-38.14-61.9,0,0-8.14-11.89-29.4,1.87L357.1,162.64s-5.63,20.64,15.63,26.89l54.4,50.66s41.89,38.13,55.64,24.37Z" transform="translate(-349.65 -55.11)"/><path class="cls-5" d="M352.61,216.76a9.18,9.18,0,1,0-.52-13A9.17,9.17,0,0,0,352.61,216.76Z" transform="translate(-349.65 -55.11)"/><path class="cls-5" d="M382.37,244.25a9.18,9.18,0,1,0-.53-13A9.19,9.19,0,0,0,382.37,244.25Z" transform="translate(-349.65 -55.11)"/><path class="cls-5" d="M412.12,271.74a9.18,9.18,0,1,0-.52-13A9.18,9.18,0,0,0,412.12,271.74Z" transform="translate(-349.65 -55.11)"/><path class="cls-6" d="M516.46,382.1V547.53c-6.77-6.52-19.89-6.69-31.45.18-13.14,7.8-19.27,21.72-13.71,31.09s20.73,10.64,33.86,2.83c9.81-5.83,15.71-15.07,15.76-23.27h0V382.1Z" transform="translate(-349.65 -55.11)"/><path class="cls-6" d="M1005.3,345.4c-9.12-17.12-30-37-30-63.8h-4V430.22c-6.09-5.85-17.88-6-28.26.17-11.8,7-17.32,19.52-12.32,27.93s18.62,9.56,30.43,2.55c8.81-5.24,14.11-13.54,14.15-20.91h0V332.14s12.31,0,22.25,15.47c16.12,25.07,12.62,50.8,2.21,74C1017.17,397.33,1014.41,362.53,1005.3,345.4Z" transform="translate(-349.65 -55.11)"/><path class="cls-6" d="M825.5,55.11v168c-6.89-6.63-20.21-6.79-32,.18-13.34,7.93-19.58,22.07-13.92,31.58s21,10.8,34.39,2.88c10-5.92,16-15.31,16-23.64h0v-179Z" transform="translate(-349.65 -55.11)"/></svg>